<svg xmlns="http://www.w3.org/2000/svg" xmlns:xlink="http://www.w3.org/1999/xlink" width="500" zoomAndPan="magnify" viewBox="0 0 375 374.999991" height="500" preserveAspectRatio="xMidYMid meet" version="1.0"><defs><clipPath id="b5960e987d"><path d="M 16.753906 13.492188 L 358.003906 13.492188 L 358.003906 203 L 16.753906 203 Z M 16.753906 13.492188 " clip-rule="nonzero"/></clipPath><clipPath id="50e95c662b"><path d="M 38 172 L 337 172 L 337 361.492188 L 38 361.492188 Z M 38 172 " clip-rule="nonzero"/></clipPath><clipPath id="6ac5e4fd26"><path d="M 149.871094 104.550781 L 224.871094 104.550781 L 224.871094 239.550781 L 149.871094 239.550781 Z M 149.871094 104.550781 " clip-rule="nonzero"/></clipPath></defs><g clip-path="url(#b5960e987d)"><path fill="#ffffff" d="M 53.527344 154.074219 C 48.898438 138.660156 45.34375 122.585938 42.941406 106.230469 C 54.242188 104.558594 67.300781 100.96875 81.839844 95.539062 C 97.664062 89.625 115.496094 81.472656 134.84375 71.296875 C 157.898438 59.171875 177.878906 46.886719 187.445312 40.832031 C 187.460938 40.84375 187.480469 40.851562 187.496094 40.863281 C 187.511719 40.851562 187.527344 40.84375 187.546875 40.832031 C 197.113281 46.886719 217.089844 59.171875 240.148438 71.296875 C 259.496094 81.472656 277.328125 89.625 293.152344 95.539062 C 307.691406 100.96875 320.75 104.558594 332.050781 106.230469 C 329.648438 122.585938 326.09375 138.660156 321.464844 154.074219 C 316.480469 170.683594 310.121094 186.945312 302.558594 202.457031 C 345.9375 155.445312 358.238281 85.085938 358.238281 85.085938 L 345.328125 84.933594 C 324.859375 84.695312 292.441406 73.21875 251.585938 51.742188 C 219.949219 35.113281 194.492188 18.300781 194.242188 18.132812 L 187.546875 13.699219 L 187.496094 13.730469 L 187.445312 13.699219 L 180.75 18.132812 C 180.5 18.300781 155.042969 35.113281 123.40625 51.742188 C 82.546875 73.21875 50.132812 84.695312 29.664062 84.933594 L 16.753906 85.085938 C 16.753906 85.085938 29.054688 155.445312 72.433594 202.457031 C 64.871094 186.945312 58.515625 170.683594 53.527344 154.074219 " fill-opacity="1" fill-rule="nonzero"/></g><g clip-path="url(#50e95c662b)"><path fill="#ffffff" d="M 187.546875 333.632812 C 187.527344 333.621094 187.511719 333.609375 187.496094 333.597656 C 187.480469 333.609375 187.460938 333.621094 187.445312 333.632812 C 113.453125 286.21875 50.304688 191.046875 38.214844 172.824219 C 42.34375 184.609375 47.039062 196.160156 52.253906 207.355469 C 66.617188 238.195312 85.125 266.933594 107.261719 292.777344 C 126.976562 315.785156 145.996094 332.210938 158.488281 341.941406 C 172.230469 352.652344 181.324219 357.871094 181.707031 358.089844 L 187.445312 361.367188 L 187.496094 361.335938 L 187.546875 361.367188 L 193.285156 358.089844 C 193.667969 357.871094 202.761719 352.652344 216.503906 341.941406 C 228.996094 332.210938 248.015625 315.785156 267.726562 292.777344 C 289.867188 266.933594 308.375 238.195312 322.738281 207.355469 C 327.953125 196.160156 332.648438 184.609375 336.777344 172.824219 C 324.6875 191.046875 261.539062 286.21875 187.546875 333.632812 " fill-opacity="1" fill-rule="nonzero"/></g><path fill="#ffffff" d="M 163.878906 158.996094 C 163.878906 158.996094 166.082031 171.066406 172.117188 175.453125 C 172.117188 175.453125 163.339844 135.945312 192.960938 116.730469 C 192.960938 116.730469 187.480469 129.355469 202.292969 149.648438 C 217.101562 169.9375 222.042969 181.46875 220.398438 194.09375 C 218.929688 205.304688 206.445312 225.164062 192.03125 236.394531 C 201.234375 228.871094 215.6875 212.234375 199.855469 190.242188 C 199.855469 190.242188 198.496094 197.765625 194.734375 200.488281 C 194.734375 200.488281 200.195312 175.882812 181.75 163.9375 C 181.75 163.9375 185.171875 171.796875 175.949219 184.441406 C 166.726562 197.085938 163.644531 204.25 164.667969 212.109375 C 165.382812 217.644531 170.453125 226.597656 176.988281 233.546875 C 162.25 221.707031 138.164062 194.757812 163.878906 158.996094 Z M 163.878906 158.996094 " fill-opacity="1" fill-rule="nonzero"/><g clip-path="url(#6ac5e4fd26)"><path fill="#ffffff" d="M 299.03125 94.613281 L 298.421875 90.515625 C 297.902344 87.058594 294.894531 84.460938 291.402344 84.460938 L 287.195312 84.496094 C 286.871094 84.496094 286.550781 84.496094 286.226562 84.496094 C 238.554688 84.496094 192.890625 52.980469 190.902344 51.601562 C 189.667969 50.667969 188.164062 50.167969 186.621094 50.167969 C 185.082031 50.167969 183.578125 50.667969 182.34375 51.601562 C 180.320312 53.015625 134.652344 84.496094 87 84.496094 C 86.675781 84.496094 86.355469 84.496094 86.050781 84.496094 L 81.84375 84.460938 C 78.351562 84.460938 75.339844 87.058594 74.824219 90.515625 L 74.214844 94.613281 C 73.980469 96.121094 68.789062 132.132812 79.550781 175.59375 C 85.925781 201.328125 96.582031 224.394531 111.246094 244.148438 C 129.28125 268.429688 153.3125 287.609375 182.734375 301.203125 L 186.191406 302.761719 C 186.480469 302.886719 186.800781 302.886719 187.085938 302.761719 L 190.542969 301.203125 C 219.96875 287.609375 244 268.429688 262.03125 244.148438 C 276.699219 224.394531 287.371094 201.328125 293.730469 175.59375 C 304.476562 132.113281 299.261719 96.136719 299.03125 94.613281 Z M 270.539062 170.332031 C 258.433594 218.734375 230.371094 254.425781 187.105469 276.453125 C 186.800781 276.613281 186.425781 276.613281 186.121094 276.453125 C 142.855469 254.425781 114.792969 218.734375 102.6875 170.332031 C 96.097656 144.003906 96.152344 120.207031 96.832031 107.902344 C 122.832031 106.023438 146.832031 97.121094 162.734375 89.761719 C 172.671875 85.160156 180.855469 80.574219 186.605469 77.101562 C 192.351562 80.574219 200.535156 85.175781 210.476562 89.761719 C 226.394531 97.121094 250.394531 106.023438 276.378906 107.902344 C 277.074219 120.207031 277.128906 144.003906 270.539062 170.332031 Z M 270.539062 170.332031 " fill-opacity="1" fill-rule="nonzero"/></g></svg>